<svg width="592" height="251" viewBox="0 0 592 251" fill="none" xmlns="http://www.w3.org/2000/svg">
<path d="M34.6275 211.395C31.8191 211.395 29.2959 210.912 27.058 209.947C24.864 208.981 23.1087 207.424 21.7923 205.274C20.5197 203.123 19.8835 200.271 19.8835 196.717V177.563C19.8835 174.008 20.5197 171.156 21.7923 169.006C23.1087 166.856 24.864 165.298 27.058 164.333C29.2959 163.367 31.7533 162.885 34.43 162.885C37.4139 162.885 40.0248 163.389 42.2627 164.398C44.5007 165.408 46.2559 166.812 47.5285 168.611C48.801 170.41 49.4373 172.56 49.4373 175.062C49.4373 176.378 49.1301 177.277 48.5158 177.76C47.9453 178.199 47.0896 178.418 45.9487 178.418C45.0272 178.418 44.2154 178.265 43.5134 177.958C42.8551 177.607 42.5041 176.992 42.4602 176.115C42.3286 174.842 42.0214 173.679 41.5387 172.626C41.056 171.529 40.2662 170.673 39.1691 170.059C38.0721 169.401 36.5582 169.072 34.6275 169.072C32.1701 169.072 30.2394 169.774 28.8352 171.178C27.4749 172.538 26.7947 174.667 26.7947 177.563V196.717C26.7947 199.613 27.4749 201.763 28.8352 203.167C30.2394 204.528 32.1701 205.208 34.6275 205.208C37.0409 205.208 38.9497 204.528 40.3539 203.167C41.7581 201.763 42.4602 199.613 42.4602 196.717V191.319H35.8122C35.1102 191.319 34.5616 191.034 34.1667 190.464C33.7718 189.893 33.5743 189.235 33.5743 188.489C33.5743 187.831 33.7718 187.217 34.1667 186.646C34.5616 186.032 35.1102 185.725 35.8122 185.725H47.1335C47.8795 185.725 48.45 185.966 48.8449 186.449C49.2398 186.887 49.4373 187.436 49.4373 188.094V196.717C49.4373 200.271 48.7791 203.123 47.4626 205.274C46.1462 207.424 44.369 208.981 42.1311 209.947C39.8932 210.912 37.392 211.395 34.6275 211.395ZM82.7882 211.197C82.2177 211.197 81.6911 211 81.2085 210.605C80.7696 210.21 80.3967 209.727 80.0895 209.157L70.4137 190.332H63.8316V208.696C63.8316 209.442 63.4586 210.013 62.7126 210.408C62.0105 210.803 61.2207 211 60.3431 211C59.4654 211 58.6536 210.803 57.9077 210.408C57.2056 210.013 56.8545 209.442 56.8545 208.696V165.122C56.8545 164.508 57.052 163.982 57.4469 163.543C57.8857 163.104 58.4781 162.885 59.2241 162.885H71.7302C74.4947 162.885 77.0178 163.301 79.2996 164.135C81.5814 164.925 83.4025 166.307 84.7628 168.282C86.1231 170.213 86.8033 172.889 86.8033 176.312C86.8033 178.945 86.3864 181.139 85.5527 182.894C84.7628 184.649 83.6658 186.054 82.2616 187.107C80.9013 188.116 79.3435 188.862 77.5883 189.345L86.8033 206.656C86.891 206.787 86.9569 206.963 87.0007 207.182C87.0446 207.358 87.0666 207.511 87.0666 207.643C87.0666 208.214 86.8472 208.784 86.4083 209.354C85.9695 209.881 85.421 210.32 84.7628 210.671C84.1485 211.022 83.4903 211.197 82.7882 211.197ZM63.8316 184.737H71.7302C74.1875 184.737 76.1402 184.145 77.5883 182.96C79.0802 181.775 79.8262 179.757 79.8262 176.905C79.8262 174.052 79.0802 172.034 77.5883 170.849C76.1402 169.664 74.1875 169.072 71.7302 169.072H63.8316V184.737ZM94.092 211C93.4776 211 92.8194 210.868 92.1173 210.605C91.4152 210.342 90.8448 210.013 90.406 209.618C89.9672 209.179 89.7478 208.674 89.7478 208.104C89.7478 207.972 89.7697 207.775 89.8136 207.511L102.912 164.859C103.175 164.069 103.724 163.477 104.558 163.082C105.435 162.687 106.357 162.49 107.322 162.49C108.331 162.49 109.253 162.687 110.087 163.082C110.964 163.477 111.535 164.069 111.798 164.859L124.831 207.511C124.918 207.775 124.962 207.972 124.962 208.104C124.962 208.63 124.721 209.113 124.238 209.552C123.799 209.991 123.229 210.342 122.527 210.605C121.869 210.868 121.21 211 120.552 211C119.982 211 119.477 210.89 119.038 210.671C118.643 210.451 118.358 210.079 118.183 209.552L115.484 200.205H99.1602L96.5274 209.552C96.3957 210.079 96.0885 210.451 95.6059 210.671C95.167 210.89 94.6624 211 94.092 211ZM100.74 194.61H113.904L107.322 172.034L100.74 194.61ZM133.621 211C132.743 211 131.931 210.803 131.185 210.408C130.483 210.013 130.132 209.442 130.132 208.696V165.188C130.132 164.355 130.483 163.762 131.185 163.411C131.931 163.06 132.743 162.885 133.621 162.885C134.455 162.885 135.157 163.016 135.727 163.279C136.341 163.499 136.89 163.894 137.373 164.464C137.855 165.035 138.36 165.825 138.887 166.834L153.499 195.335V165.122C153.499 164.333 153.85 163.762 154.552 163.411C155.298 163.06 156.11 162.885 156.987 162.885C157.865 162.885 158.655 163.06 159.357 163.411C160.103 163.762 160.476 164.333 160.476 165.122V208.696C160.476 209.442 160.103 210.013 159.357 210.408C158.655 210.803 157.865 211 156.987 211C156.11 211 155.32 210.781 154.618 210.342C153.916 209.903 153.323 209.267 152.841 208.433L137.109 178.484V208.696C137.109 209.442 136.736 210.013 135.99 210.408C135.288 210.803 134.498 211 133.621 211ZM172.243 211C171.322 211 170.576 210.781 170.005 210.342C169.435 209.903 169.149 209.376 169.149 208.762V165.122C169.149 164.508 169.435 163.982 170.005 163.543C170.576 163.104 171.322 162.885 172.243 162.885H183.893C186.658 162.885 189.159 163.367 191.397 164.333C193.679 165.298 195.456 166.856 196.729 169.006C198.045 171.156 198.703 174.008 198.703 177.563V196.322C198.703 199.876 198.045 202.728 196.729 204.879C195.456 207.029 193.679 208.587 191.397 209.552C189.159 210.517 186.658 211 183.893 211H172.243ZM176.127 204.813H183.893C186.351 204.813 188.26 204.133 189.62 202.772C191.024 201.368 191.726 199.218 191.726 196.322V177.563C191.726 174.667 191.024 172.538 189.62 171.178C188.26 169.774 186.351 169.072 183.893 169.072H176.127V204.813ZM207.737 211C207.122 211 206.464 210.868 205.762 210.605C205.06 210.342 204.49 210.013 204.051 209.618C203.612 209.179 203.393 208.674 203.393 208.104C203.393 207.972 203.414 207.775 203.458 207.511L216.557 164.859C216.82 164.069 217.369 163.477 218.202 163.082C219.08 162.687 220.001 162.49 220.967 162.49C221.976 162.49 222.898 162.687 223.731 163.082C224.609 163.477 225.179 164.069 225.443 164.859L238.475 207.511C238.563 207.775 238.607 207.972 238.607 208.104C238.607 208.63 238.366 209.113 237.883 209.552C237.444 209.991 236.874 210.342 236.172 210.605C235.513 210.868 234.855 211 234.197 211C233.626 211 233.122 210.89 232.683 210.671C232.288 210.451 232.003 210.079 231.827 209.552L229.129 200.205H212.805L210.172 209.552C210.04 210.079 209.733 210.451 209.251 210.671C208.812 210.89 208.307 211 207.737 211ZM214.385 194.61H227.549L220.967 172.034L214.385 194.61ZM246.871 211C246.125 211 245.423 210.803 244.764 210.408C244.106 210.013 243.777 209.442 243.777 208.696V165.122C243.777 164.333 244.128 163.762 244.83 163.411C245.576 163.06 246.388 162.885 247.266 162.885C248.143 162.885 248.933 163.06 249.635 163.411C250.381 163.762 250.754 164.333 250.754 165.122V204.813H267.868C268.57 204.813 269.096 205.142 269.447 205.8C269.798 206.414 269.974 207.117 269.974 207.906C269.974 208.652 269.798 209.354 269.447 210.013C269.096 210.671 268.57 211 267.868 211H246.871ZM275.872 211C275.258 211 274.6 210.868 273.898 210.605C273.195 210.342 272.625 210.013 272.186 209.618C271.747 209.179 271.528 208.674 271.528 208.104C271.528 207.972 271.55 207.775 271.594 207.511L284.692 164.859C284.956 164.069 285.504 163.477 286.338 163.082C287.215 162.687 288.137 162.49 289.102 162.49C290.112 162.49 291.033 162.687 291.867 163.082C292.744 163.477 293.315 164.069 293.578 164.859L306.611 207.511C306.699 207.775 306.742 207.972 306.742 208.104C306.742 208.63 306.501 209.113 306.018 209.552C305.58 209.991 305.009 210.342 304.307 210.605C303.649 210.868 302.991 211 302.332 211C301.762 211 301.257 210.89 300.818 210.671C300.424 210.451 300.138 210.079 299.963 209.552L297.264 200.205H280.94L278.308 209.552C278.176 210.079 277.869 210.451 277.386 210.671C276.947 210.89 276.443 211 275.872 211ZM282.52 194.61H295.684L289.102 172.034L282.52 194.61ZM328.183 211C327.262 211 326.516 210.781 325.945 210.342C325.375 209.903 325.09 209.376 325.09 208.762V165.188C325.09 164.442 325.419 163.872 326.077 163.477C326.735 163.082 327.437 162.885 328.183 162.885H340.163C342.532 162.885 344.726 163.192 346.745 163.806C348.763 164.42 350.387 165.561 351.616 167.229C352.844 168.852 353.459 171.2 353.459 174.272C353.459 177.036 352.954 179.318 351.945 181.117C350.979 182.916 349.619 184.189 347.864 184.935C349.224 185.461 350.409 186.163 351.418 187.041C352.427 187.875 353.217 189.016 353.788 190.464C354.358 191.868 354.643 193.689 354.643 195.927V197.178C354.643 200.556 354.073 203.255 352.932 205.274C351.791 207.292 350.233 208.762 348.259 209.684C346.284 210.561 344.046 211 341.545 211H328.183ZM332.001 204.813H340.229C342.598 204.813 344.419 204.177 345.692 202.904C347.008 201.588 347.666 199.503 347.666 196.651V195.598C347.666 192.702 347.008 190.661 345.692 189.476C344.419 188.292 342.598 187.699 340.229 187.699H332.001V204.813ZM332.001 182.17H339.899C342.137 182.17 343.783 181.6 344.836 180.459C345.933 179.318 346.482 177.629 346.482 175.391C346.482 173.899 346.196 172.692 345.626 171.77C345.099 170.849 344.331 170.169 343.322 169.73C342.313 169.291 341.128 169.072 339.768 169.072H332.001V182.17ZM376.281 211.395C373.473 211.395 370.928 210.912 368.646 209.947C366.364 208.981 364.565 207.424 363.249 205.274C361.932 203.123 361.274 200.271 361.274 196.717V165.122C361.274 164.333 361.625 163.762 362.327 163.411C363.029 163.06 363.841 162.885 364.762 162.885C365.596 162.885 366.386 163.06 367.132 163.411C367.878 163.762 368.251 164.333 368.251 165.122V196.717C368.251 199.613 368.953 201.763 370.357 203.167C371.761 204.528 373.736 205.208 376.281 205.208C378.782 205.208 380.757 204.528 382.205 203.167C383.653 201.763 384.377 199.613 384.377 196.717V165.122C384.377 164.333 384.728 163.762 385.43 163.411C386.132 163.06 386.944 162.885 387.866 162.885C388.7 162.885 389.489 163.06 390.235 163.411C390.981 163.762 391.354 164.333 391.354 165.122V196.717C391.354 200.271 390.674 203.123 389.314 205.274C387.997 207.424 386.198 208.981 383.916 209.947C381.635 210.912 379.09 211.395 376.281 211.395ZM403.27 211C402.392 211 401.581 210.803 400.835 210.408C400.133 210.013 399.781 209.442 399.781 208.696V165.122C399.781 164.333 400.133 163.762 400.835 163.411C401.581 163.06 402.392 162.885 403.27 162.885C404.148 162.885 404.938 163.06 405.64 163.411C406.386 163.762 406.759 164.333 406.759 165.122V208.696C406.759 209.442 406.386 210.013 405.64 210.408C404.938 210.803 404.148 211 403.27 211ZM418.559 211C417.813 211 417.111 210.803 416.453 210.408C415.795 210.013 415.466 209.442 415.466 208.696V165.122C415.466 164.333 415.817 163.762 416.519 163.411C417.265 163.06 418.076 162.885 418.954 162.885C419.832 162.885 420.622 163.06 421.324 163.411C422.07 163.762 422.443 164.333 422.443 165.122V204.813H439.556C440.258 204.813 440.785 205.142 441.136 205.8C441.487 206.414 441.662 207.117 441.662 207.906C441.662 208.652 441.487 209.354 441.136 210.013C440.785 210.671 440.258 211 439.556 211H418.559ZM449.799 211C448.877 211 448.131 210.781 447.561 210.342C446.99 209.903 446.705 209.376 446.705 208.762V165.122C446.705 164.508 446.99 163.982 447.561 163.543C448.131 163.104 448.877 162.885 449.799 162.885H461.449C464.213 162.885 466.715 163.367 468.953 164.333C471.234 165.298 473.012 166.856 474.284 169.006C475.601 171.156 476.259 174.008 476.259 177.563V196.322C476.259 199.876 475.601 202.728 474.284 204.879C473.012 207.029 471.234 208.587 468.953 209.552C466.715 210.517 464.213 211 461.449 211H449.799ZM453.682 204.813H461.449C463.906 204.813 465.815 204.133 467.175 202.772C468.58 201.368 469.282 199.218 469.282 196.322V177.563C469.282 174.667 468.58 172.538 467.175 171.178C465.815 169.774 463.906 169.072 461.449 169.072H453.682V204.813ZM487.53 211C486.784 211 486.082 210.803 485.424 210.408C484.766 210.013 484.437 209.442 484.437 208.696V165.188C484.437 164.442 484.766 163.872 485.424 163.477C486.082 163.082 486.784 162.885 487.53 162.885H510.963C511.796 162.885 512.389 163.214 512.74 163.872C513.091 164.53 513.266 165.21 513.266 165.912C513.266 166.746 513.069 167.492 512.674 168.15C512.279 168.765 511.709 169.072 510.963 169.072H491.414V184.145H501.55C502.296 184.145 502.867 184.43 503.262 185.001C503.656 185.571 503.854 186.229 503.854 186.975C503.854 187.59 503.678 188.204 503.327 188.818C502.976 189.389 502.384 189.674 501.55 189.674H491.414V204.813H510.963C511.709 204.813 512.279 205.12 512.674 205.734C513.069 206.349 513.266 207.095 513.266 207.972C513.266 208.674 513.091 209.354 512.74 210.013C512.389 210.671 511.796 211 510.963 211H487.53ZM544.759 211.197C544.189 211.197 543.662 211 543.18 210.605C542.741 210.21 542.368 209.727 542.061 209.157L532.385 190.332H525.803V208.696C525.803 209.442 525.43 210.013 524.684 210.408C523.982 210.803 523.192 211 522.314 211C521.437 211 520.625 210.803 519.879 210.408C519.177 210.013 518.826 209.442 518.826 208.696V165.122C518.826 164.508 519.023 163.982 519.418 163.543C519.857 163.104 520.449 162.885 521.195 162.885H533.701C536.466 162.885 538.989 163.301 541.271 164.135C543.553 164.925 545.374 166.307 546.734 168.282C548.094 170.213 548.774 172.889 548.774 176.312C548.774 178.945 548.358 181.139 547.524 182.894C546.734 184.649 545.637 186.054 544.233 187.107C542.872 188.116 541.315 188.862 539.559 189.345L548.774 206.656C548.862 206.787 548.928 206.963 548.972 207.182C549.016 207.358 549.038 207.511 549.038 207.643C549.038 208.214 548.818 208.784 548.38 209.354C547.941 209.881 547.392 210.32 546.734 210.671C546.12 211.022 545.461 211.197 544.759 211.197ZM525.803 184.737H533.701C536.159 184.737 538.111 184.145 539.559 182.96C541.051 181.775 541.797 179.757 541.797 176.905C541.797 174.052 541.051 172.034 539.559 170.849C538.111 169.664 536.159 169.072 533.701 169.072H525.803V184.737ZM567.319 211.527C564.466 211.527 561.943 211.11 559.749 210.276C557.555 209.442 555.844 208.433 554.615 207.248C553.386 206.02 552.772 204.857 552.772 203.76C552.772 203.233 552.904 202.685 553.167 202.114C553.474 201.544 553.847 201.061 554.286 200.666C554.769 200.227 555.273 200.008 555.8 200.008C556.414 200.008 556.985 200.271 557.511 200.798C558.082 201.28 558.762 201.873 559.552 202.575C560.342 203.277 561.329 203.891 562.514 204.418C563.698 204.944 565.212 205.208 567.055 205.208C568.635 205.208 570.039 204.966 571.268 204.484C572.54 203.957 573.528 203.189 574.23 202.18C574.976 201.127 575.349 199.81 575.349 198.231C575.349 196.563 574.954 195.181 574.164 194.084C573.418 192.987 572.387 192.065 571.07 191.319C569.798 190.573 568.416 189.893 566.924 189.279C565.432 188.665 563.918 188.006 562.382 187.304C560.846 186.602 559.442 185.768 558.169 184.803C556.897 183.794 555.866 182.543 555.076 181.051C554.33 179.515 553.957 177.607 553.957 175.325C553.957 172.911 554.396 170.893 555.273 169.269C556.195 167.646 557.401 166.351 558.893 165.386C560.385 164.42 562.031 163.74 563.83 163.345C565.629 162.906 567.406 162.687 569.162 162.687C570.259 162.687 571.465 162.775 572.782 162.95C574.142 163.082 575.458 163.345 576.731 163.74C578.004 164.091 579.057 164.574 579.89 165.188C580.724 165.803 581.141 166.549 581.141 167.426C581.141 167.865 581.031 168.392 580.812 169.006C580.593 169.576 580.263 170.081 579.825 170.52C579.43 170.959 578.903 171.178 578.245 171.178C577.674 171.178 577.038 170.981 576.336 170.586C575.634 170.147 574.713 169.73 573.572 169.335C572.475 168.896 571.005 168.677 569.162 168.677C567.582 168.677 566.156 168.896 564.883 169.335C563.655 169.774 562.689 170.432 561.987 171.31C561.285 172.143 560.934 173.262 560.934 174.667C560.934 176.071 561.307 177.234 562.053 178.155C562.843 179.033 563.874 179.801 565.146 180.459C566.419 181.073 567.801 181.666 569.293 182.236C570.829 182.806 572.343 183.487 573.835 184.277C575.371 185.022 576.775 185.944 578.047 187.041C579.364 188.138 580.395 189.542 581.141 191.254C581.931 192.921 582.326 195.005 582.326 197.507C582.326 200.666 581.668 203.299 580.351 205.405C579.079 207.468 577.301 209.003 575.02 210.013C572.782 211.022 570.215 211.527 567.319 211.527Z" fill="#097054"/>
<path d="M184.417 244C184.015 244 183.585 243.924 183.126 243.771C182.686 243.598 182.313 243.379 182.008 243.111C181.702 242.824 181.549 242.509 181.549 242.165C181.549 242.107 181.568 242.002 181.606 241.849L186.94 224.355C187.093 223.858 187.456 223.485 188.03 223.237C188.604 222.988 189.215 222.864 189.865 222.864C190.535 222.864 191.146 222.988 191.701 223.237C192.275 223.485 192.638 223.858 192.791 224.355L198.154 241.849C198.192 242.002 198.211 242.107 198.211 242.165C198.211 242.509 198.058 242.824 197.752 243.111C197.446 243.379 197.073 243.598 196.634 243.771C196.194 243.924 195.764 244 195.343 244C194.98 244 194.664 243.943 194.397 243.828C194.148 243.694 193.976 243.474 193.881 243.168L192.905 239.583H186.854L185.879 243.168C185.803 243.474 185.631 243.694 185.363 243.828C185.095 243.943 184.78 244 184.417 244ZM187.772 236.142H191.959L189.865 228.456L187.772 236.142ZM202.108 244C201.553 244 201.037 243.885 200.559 243.656C200.1 243.426 199.871 243.082 199.871 242.623V224.412C199.871 223.934 200.1 223.59 200.559 223.38C201.037 223.151 201.553 223.036 202.108 223.036C202.643 223.036 203.083 223.084 203.427 223.179C203.79 223.256 204.115 223.447 204.402 223.753C204.708 224.059 205.042 224.565 205.406 225.273L210.052 234.134V224.384C210.052 223.906 210.281 223.562 210.74 223.351C211.218 223.141 211.734 223.036 212.288 223.036C212.843 223.036 213.35 223.141 213.808 223.351C214.286 223.562 214.525 223.906 214.525 224.384V242.623C214.525 243.082 214.286 243.426 213.808 243.656C213.35 243.885 212.843 244 212.288 244C211.772 244 211.294 243.924 210.855 243.771C210.415 243.618 210.061 243.293 209.793 242.795L204.344 232.873V242.623C204.344 243.082 204.105 243.426 203.628 243.656C203.169 243.885 202.662 244 202.108 244ZM219.577 244C218.984 244 218.506 243.866 218.143 243.598C217.799 243.331 217.627 243.015 217.627 242.652V224.384C217.627 224.02 217.799 223.705 218.143 223.437C218.506 223.17 218.984 223.036 219.577 223.036H224.653C225.972 223.036 227.167 223.256 228.238 223.695C229.309 224.135 230.15 224.852 230.762 225.846C231.393 226.841 231.708 228.16 231.708 229.804V237.232C231.708 238.876 231.393 240.195 230.762 241.189C230.15 242.184 229.309 242.901 228.238 243.34C227.167 243.78 225.972 244 224.653 244H219.577ZM222.101 240.1H224.653C225.456 240.1 226.087 239.87 226.546 239.411C227.005 238.933 227.234 238.207 227.234 237.232V229.804C227.234 228.829 227.005 228.112 226.546 227.653C226.087 227.175 225.456 226.936 224.653 226.936H222.101V240.1ZM246.938 244.172C245.695 244.172 244.548 243.952 243.496 243.512C242.445 243.073 241.603 242.356 240.972 241.362C240.361 240.367 240.055 239.048 240.055 237.404V229.804C240.055 228.16 240.361 226.841 240.972 225.846C241.603 224.852 242.445 224.135 243.496 223.695C244.548 223.256 245.695 223.036 246.938 223.036C248.314 223.036 249.538 223.265 250.609 223.724C251.698 224.164 252.559 224.804 253.19 225.646C253.821 226.487 254.136 227.519 254.136 228.743C254.136 229.603 253.954 230.177 253.591 230.464C253.228 230.731 252.664 230.865 251.899 230.865C251.306 230.865 250.79 230.77 250.35 230.578C249.93 230.387 249.7 230.033 249.662 229.517C249.662 229.326 249.633 229.087 249.576 228.8C249.538 228.513 249.442 228.227 249.289 227.94C249.136 227.653 248.888 227.414 248.544 227.223C248.199 227.032 247.722 226.936 247.11 226.936C246.288 226.936 245.647 227.175 245.188 227.653C244.748 228.112 244.529 228.829 244.529 229.804V237.404C244.529 238.379 244.758 239.105 245.217 239.583C245.676 240.042 246.316 240.272 247.138 240.272C247.712 240.272 248.161 240.176 248.486 239.985C248.83 239.794 249.079 239.555 249.232 239.268C249.385 238.962 249.49 238.647 249.547 238.322C249.605 237.997 249.643 237.691 249.662 237.404C249.7 236.869 249.93 236.515 250.35 236.343C250.79 236.152 251.297 236.056 251.87 236.056C252.654 236.056 253.228 236.199 253.591 236.486C253.954 236.754 254.136 237.318 254.136 238.178C254.136 239.44 253.821 240.52 253.19 241.419C252.559 242.318 251.698 243.006 250.609 243.484C249.538 243.943 248.314 244.172 246.938 244.172ZM263.185 244.172C261.866 244.172 260.671 243.952 259.6 243.512C258.548 243.073 257.707 242.356 257.076 241.362C256.464 240.367 256.159 239.048 256.159 237.404V229.804C256.159 228.16 256.464 226.841 257.076 225.846C257.707 224.852 258.548 224.135 259.6 223.695C260.671 223.256 261.866 223.036 263.185 223.036C264.504 223.036 265.699 223.256 266.77 223.695C267.84 224.135 268.682 224.852 269.293 225.846C269.924 226.841 270.24 228.16 270.24 229.804V237.404C270.24 239.048 269.924 240.367 269.293 241.362C268.682 242.356 267.84 243.073 266.77 243.512C265.699 243.952 264.504 244.172 263.185 244.172ZM263.185 240.272C263.988 240.272 264.619 240.042 265.078 239.583C265.536 239.125 265.766 238.398 265.766 237.404V229.804C265.766 228.81 265.536 228.083 265.078 227.624C264.619 227.166 263.988 226.936 263.185 226.936C262.382 226.936 261.751 227.166 261.292 227.624C260.852 228.083 260.632 228.81 260.632 229.804V237.404C260.632 238.398 260.852 239.125 261.292 239.583C261.751 240.042 262.382 240.272 263.185 240.272ZM275.345 244C274.79 244 274.274 243.885 273.796 243.656C273.337 243.426 273.108 243.082 273.108 242.623V224.412C273.108 223.934 273.337 223.59 273.796 223.38C274.274 223.151 274.79 223.036 275.345 223.036C275.88 223.036 276.32 223.084 276.664 223.179C277.027 223.256 277.352 223.447 277.639 223.753C277.945 224.059 278.28 224.565 278.643 225.273L283.289 234.134V224.384C283.289 223.906 283.518 223.562 283.977 223.351C284.455 223.141 284.971 223.036 285.526 223.036C286.08 223.036 286.587 223.141 287.046 223.351C287.524 223.562 287.763 223.906 287.763 224.384V242.623C287.763 243.082 287.524 243.426 287.046 243.656C286.587 243.885 286.08 244 285.526 244C285.01 244 284.532 243.924 284.092 243.771C283.652 243.618 283.298 243.293 283.031 242.795L277.582 232.873V242.623C277.582 243.082 277.343 243.426 276.865 243.656C276.406 243.885 275.899 244 275.345 244ZM297.087 244C296.533 244 296.017 243.885 295.539 243.656C295.08 243.426 294.85 243.082 294.85 242.623V227.051H290.893C290.472 227.051 290.138 226.85 289.889 226.449C289.66 226.028 289.545 225.55 289.545 225.015C289.545 224.537 289.65 224.087 289.86 223.667C290.071 223.246 290.415 223.036 290.893 223.036H303.282C303.76 223.036 304.104 223.246 304.314 223.667C304.525 224.087 304.63 224.537 304.63 225.015C304.63 225.55 304.515 226.028 304.286 226.449C304.056 226.85 303.722 227.051 303.282 227.051H299.324V242.623C299.324 243.082 299.085 243.426 298.607 243.656C298.149 243.885 297.642 244 297.087 244ZM318.137 244.172C317.851 244.172 317.573 244.115 317.306 244C317.057 243.866 316.856 243.646 316.703 243.34L312.774 235.712H310.882V242.623C310.882 243.082 310.643 243.426 310.165 243.656C309.706 243.885 309.199 244 308.645 244C308.09 244 307.574 243.885 307.096 243.656C306.637 243.426 306.408 243.082 306.408 242.623V224.384C306.408 224.02 306.532 223.705 306.781 223.437C307.029 223.17 307.364 223.036 307.784 223.036H313.721C315.04 223.036 316.226 223.227 317.277 223.609C318.348 223.973 319.199 224.604 319.829 225.502C320.46 226.382 320.776 227.605 320.776 229.173C320.776 230.244 320.623 231.171 320.317 231.955C320.03 232.72 319.619 233.351 319.084 233.848C318.568 234.345 317.975 234.727 317.306 234.995L320.805 241.333C320.862 241.409 320.9 241.495 320.919 241.591C320.938 241.687 320.948 241.773 320.948 241.849C320.948 242.212 320.805 242.576 320.518 242.939C320.231 243.302 319.868 243.598 319.428 243.828C319.007 244.057 318.577 244.172 318.137 244.172ZM310.882 232.27H313.721C314.524 232.27 315.155 232.079 315.614 231.697C316.073 231.295 316.302 230.597 316.302 229.603C316.302 228.59 316.073 227.892 315.614 227.51C315.155 227.127 314.524 226.936 313.721 226.936H310.882V232.27ZM324.59 244C324.188 244 323.758 243.924 323.299 243.771C322.859 243.598 322.487 243.379 322.181 243.111C321.875 242.824 321.722 242.509 321.722 242.165C321.722 242.107 321.741 242.002 321.779 241.849L327.113 224.355C327.266 223.858 327.63 223.485 328.203 223.237C328.777 222.988 329.389 222.864 330.039 222.864C330.708 222.864 331.32 222.988 331.874 223.237C332.448 223.485 332.811 223.858 332.964 224.355L338.327 241.849C338.365 242.002 338.384 242.107 338.384 242.165C338.384 242.509 338.231 242.824 337.925 243.111C337.619 243.379 337.247 243.598 336.807 243.771C336.367 243.924 335.937 244 335.516 244C335.153 244 334.838 243.943 334.57 243.828C334.321 243.694 334.149 243.474 334.054 243.168L333.079 239.583H327.027L326.052 243.168C325.976 243.474 325.804 243.694 325.536 243.828C325.268 243.943 324.953 244 324.59 244ZM327.945 236.142H332.132L330.039 228.456L327.945 236.142ZM346.697 244.172C345.455 244.172 344.307 243.952 343.256 243.512C342.204 243.073 341.363 242.356 340.732 241.362C340.12 240.367 339.814 239.048 339.814 237.404V229.804C339.814 228.16 340.12 226.841 340.732 225.846C341.363 224.852 342.204 224.135 343.256 223.695C344.307 223.256 345.455 223.036 346.697 223.036C348.074 223.036 349.297 223.265 350.368 223.724C351.458 224.164 352.318 224.804 352.949 225.646C353.58 226.487 353.896 227.519 353.896 228.743C353.896 229.603 353.714 230.177 353.351 230.464C352.987 230.731 352.423 230.865 351.659 230.865C351.066 230.865 350.55 230.77 350.11 230.578C349.689 230.387 349.46 230.033 349.422 229.517C349.422 229.326 349.393 229.087 349.336 228.8C349.297 228.513 349.202 228.227 349.049 227.94C348.896 227.653 348.647 227.414 348.303 227.223C347.959 227.032 347.481 226.936 346.869 226.936C346.047 226.936 345.407 227.175 344.948 227.653C344.508 228.112 344.288 228.829 344.288 229.804V237.404C344.288 238.379 344.518 239.105 344.977 239.583C345.435 240.042 346.076 240.272 346.898 240.272C347.472 240.272 347.921 240.176 348.246 239.985C348.59 239.794 348.839 239.555 348.992 239.268C349.145 238.962 349.25 238.647 349.307 238.322C349.364 237.997 349.403 237.691 349.422 237.404C349.46 236.869 349.689 236.515 350.11 236.343C350.55 236.152 351.056 236.056 351.63 236.056C352.414 236.056 352.987 236.199 353.351 236.486C353.714 236.754 353.896 237.318 353.896 238.178C353.896 239.44 353.58 240.52 352.949 241.419C352.318 242.318 351.458 243.006 350.368 243.484C349.297 243.943 348.074 244.172 346.697 244.172ZM362.371 244C361.816 244 361.3 243.885 360.822 243.656C360.363 243.426 360.134 243.082 360.134 242.623V227.051H356.176C355.756 227.051 355.421 226.85 355.172 226.449C354.943 226.028 354.828 225.55 354.828 225.015C354.828 224.537 354.934 224.087 355.144 223.667C355.354 223.246 355.698 223.036 356.176 223.036H368.565C369.043 223.036 369.388 223.246 369.598 223.667C369.808 224.087 369.913 224.537 369.913 225.015C369.913 225.55 369.799 226.028 369.569 226.449C369.34 226.85 369.005 227.051 368.565 227.051H364.608V242.623C364.608 243.082 364.369 243.426 363.891 243.656C363.432 243.885 362.925 244 362.371 244ZM378.152 244.172C376.833 244.172 375.638 243.952 374.567 243.512C373.516 243.073 372.674 242.356 372.043 241.362C371.432 240.367 371.126 239.048 371.126 237.404V229.804C371.126 228.16 371.432 226.841 372.043 225.846C372.674 224.852 373.516 224.135 374.567 223.695C375.638 223.256 376.833 223.036 378.152 223.036C379.471 223.036 380.666 223.256 381.737 223.695C382.808 224.135 383.649 224.852 384.261 225.846C384.892 226.841 385.207 228.16 385.207 229.804V237.404C385.207 239.048 384.892 240.367 384.261 241.362C383.649 242.356 382.808 243.073 381.737 243.512C380.666 243.952 379.471 244.172 378.152 244.172ZM378.152 240.272C378.955 240.272 379.586 240.042 380.045 239.583C380.504 239.125 380.733 238.398 380.733 237.404V229.804C380.733 228.81 380.504 228.083 380.045 227.624C379.586 227.166 378.955 226.936 378.152 226.936C377.349 226.936 376.718 227.166 376.259 227.624C375.82 228.083 375.6 228.81 375.6 229.804V237.404C375.6 238.398 375.82 239.125 376.259 239.583C376.718 240.042 377.349 240.272 378.152 240.272ZM399.805 244.172C399.518 244.172 399.241 244.115 398.973 244C398.725 243.866 398.524 243.646 398.371 243.34L394.442 235.712H392.549V242.623C392.549 243.082 392.31 243.426 391.832 243.656C391.373 243.885 390.867 244 390.312 244C389.758 244 389.241 243.885 388.763 243.656C388.305 243.426 388.075 243.082 388.075 242.623V224.384C388.075 224.02 388.199 223.705 388.448 223.437C388.697 223.17 389.031 223.036 389.452 223.036H395.388C396.707 223.036 397.893 223.227 398.944 223.609C400.015 223.973 400.866 224.604 401.497 225.502C402.128 226.382 402.443 227.605 402.443 229.173C402.443 230.244 402.29 231.171 401.984 231.955C401.698 232.72 401.286 233.351 400.751 233.848C400.235 234.345 399.642 234.727 398.973 234.995L402.472 241.333C402.529 241.409 402.567 241.495 402.587 241.591C402.606 241.687 402.615 241.773 402.615 241.849C402.615 242.212 402.472 242.576 402.185 242.939C401.898 243.302 401.535 243.598 401.095 243.828C400.675 244.057 400.244 244.172 399.805 244.172ZM392.549 232.27H395.388C396.191 232.27 396.822 232.079 397.281 231.697C397.74 231.295 397.969 230.597 397.969 229.603C397.969 228.59 397.74 227.892 397.281 227.51C396.822 227.127 396.191 226.936 395.388 226.936H392.549V232.27ZM410.731 244.287C409.488 244.287 408.341 244.105 407.289 243.742C406.238 243.379 405.397 242.92 404.766 242.365C404.135 241.792 403.819 241.189 403.819 240.559C403.819 240.234 403.905 239.889 404.077 239.526C404.25 239.144 404.479 238.819 404.766 238.551C405.072 238.283 405.406 238.15 405.769 238.15C406.114 238.15 406.429 238.255 406.716 238.465C407.022 238.675 407.347 238.924 407.691 239.211C408.054 239.497 408.465 239.746 408.924 239.956C409.402 240.167 409.976 240.272 410.645 240.272C411.085 240.272 411.515 240.214 411.935 240.1C412.375 239.966 412.729 239.765 412.997 239.497C413.283 239.211 413.427 238.838 413.427 238.379C413.427 237.882 413.264 237.461 412.939 237.117C412.614 236.754 412.174 236.429 411.62 236.142C411.085 235.855 410.492 235.568 409.842 235.282C409.211 234.976 408.57 234.651 407.92 234.307C407.27 233.943 406.668 233.523 406.114 233.045C405.578 232.548 405.148 231.955 404.823 231.267C404.498 230.578 404.336 229.756 404.336 228.8C404.336 227.73 404.546 226.821 404.966 226.076C405.387 225.311 405.951 224.699 406.659 224.24C407.366 223.762 408.15 223.418 409.01 223.208C409.89 222.978 410.779 222.864 411.677 222.864C412.06 222.864 412.566 222.892 413.197 222.95C413.828 223.007 414.459 223.122 415.09 223.294C415.74 223.466 416.285 223.724 416.725 224.068C417.165 224.393 417.384 224.833 417.384 225.387C417.384 225.636 417.317 225.951 417.184 226.334C417.069 226.697 416.878 227.022 416.61 227.309C416.362 227.596 416.027 227.739 415.606 227.739C415.262 227.739 414.937 227.653 414.631 227.481C414.344 227.29 413.972 227.108 413.513 226.936C413.073 226.745 412.461 226.649 411.677 226.649C411.008 226.649 410.454 226.735 410.014 226.907C409.593 227.06 409.287 227.271 409.096 227.538C408.905 227.787 408.809 228.064 408.809 228.37C408.809 228.772 408.972 229.125 409.297 229.431C409.622 229.718 410.052 229.995 410.588 230.263C411.142 230.511 411.735 230.779 412.366 231.066C413.016 231.334 413.666 231.659 414.316 232.041C414.966 232.404 415.559 232.844 416.094 233.36C416.648 233.876 417.088 234.507 417.413 235.253C417.738 235.999 417.901 236.888 417.901 237.92C417.901 239.297 417.585 240.463 416.954 241.419C416.342 242.356 415.501 243.073 414.43 243.57C413.36 244.048 412.127 244.287 410.731 244.287Z" fill="#ECA143"/>
<path d="M0 125.5L47.9694 124.032C48.5334 124.014 49 124.467 49 125.031V125.969C49 126.533 48.5334 126.986 47.9694 126.968L0 125.5Z" fill="#097054"/>
<path d="M44 124.434L78.5014 67.0002L79.3586 67.5151C81.7258 68.9371 82.492 72.0088 81.07 74.376L49.6583 126.667C49.3739 127.14 48.7595 127.293 48.2861 127.009L44 124.434Z" fill="#097054"/>
<path d="M119 131H110V126H119V131Z" fill="#097054"/>
<path d="M223 130H211.5V126H223V130Z" fill="#097054"/>
<path d="M80.4563 68.5414L115.728 127.267L109.728 130.871L77.0299 76.4319C75.6081 74.0646 76.3745 70.993 78.7418 69.5712L80.4563 68.5414Z" fill="#097054"/>
<path d="M112 127.359L168.394 33.4665L170.966 35.0111C173.333 36.4329 174.1 39.5046 172.678 41.8718L119.888 129.764C119.319 130.711 118.09 131.017 117.144 130.448L112 127.359Z" fill="#097054"/>
<path d="M171.132 33.917L218.459 126.574L211.334 130.213L166.282 42.0088C165.026 39.5496 166.001 36.5377 168.46 35.2816L171.132 33.917Z" fill="#097054"/>
<path d="M214.918 125.944L290.563 3.14073e-05L293.992 2.05959C296.36 3.48141 297.126 6.55306 295.704 8.92031L223.664 128.864C223.095 129.811 221.866 130.117 220.919 129.548L214.918 125.944Z" fill="#097054"/>
<path d="M293.715 0L368.8 125.011L361.085 129.645L288.574 8.92028C287.153 6.55303 287.919 3.48138 290.286 2.05955L293.715 0Z" fill="#097054"/>
<path d="M592 125.5L535.026 124.027C534.464 124.012 534 124.464 534 125.026V125.974C534 126.536 534.464 126.988 535.026 126.973L592 125.5Z" fill="#097054"/>
<path d="M538.8 124.434L504.298 67.0002L503.441 67.5151C501.074 68.9371 500.308 72.0088 501.73 74.376L533.142 126.667C533.426 127.14 534.04 127.293 534.514 127.009L538.8 124.434Z" fill="#097054"/>
<path d="M463.8 131H472.8V126H463.8V131Z" fill="#097054"/>
<path d="M359.8 130H371.3V126H359.8V130Z" fill="#097054"/>
<path d="M502.344 68.5414L467.071 127.267L473.072 130.871L505.77 76.4319C507.192 74.0646 506.425 70.993 504.058 69.5712L502.344 68.5414Z" fill="#097054"/>
<path d="M470.8 127.359L414.406 33.4665L411.834 35.0111C409.467 36.4329 408.7 39.5046 410.122 41.8718L462.912 129.764C463.481 130.711 464.709 131.017 465.656 130.448L470.8 127.359Z" fill="#097054"/>
<path d="M411.668 33.917L364.341 126.574L371.465 130.213L416.518 42.0088C417.774 39.5496 416.799 36.5377 414.34 35.2816L411.668 33.917Z" fill="#097054"/>
<path d="M367.881 125.944L292.236 3.14073e-05L288.807 2.05959C286.44 3.48141 285.674 6.55306 287.095 8.92031L359.136 128.864C359.705 129.811 360.934 130.117 361.881 129.548L367.881 125.944Z" fill="#097054"/>
<path d="M289.084 0L214 125.011L221.715 129.645L294.225 8.92028C295.647 6.55303 294.881 3.48138 292.514 2.05955L289.084 0Z" fill="#097054"/>
<rect y="139.952" width="592" height="7.09589" rx="3.54795" fill="#ECA143"/>
<rect y="230" width="170" height="7" rx="3.5" fill="#ECA143"/>
<rect x="422" y="230" width="170" height="7" rx="3.5" fill="#ECA143"/>
<path d="M307 102C307 109.18 301.18 115 294 115C286.82 115 281 109.18 281 102C281 94.8203 286.82 89 294 89C301.18 89 307 94.8203 307 102Z" fill="#ECA143"/>
<rect x="281" y="102" width="26" height="14" fill="white"/>
<rect x="281" y="104" width="12" height="12" fill="#097054"/>
<rect x="281" y="118" width="12" height="12" fill="#097054"/>
<rect x="295" y="104" width="12" height="12" fill="#097054"/>
<rect x="295" y="118" width="12" height="12" fill="#097054"/>
<rect x="155" y="108" width="9.23077" height="9.23077" fill="#097054"/>
<rect x="155" y="118.769" width="9.23077" height="9.23077" fill="#097054"/>
<rect x="165.769" y="108" width="9.23077" height="9.23077" fill="#097054"/>
<rect x="165.769" y="118.769" width="9.23077" height="9.23077" fill="#097054"/>
<rect x="406" y="108" width="9.23077" height="9.23077" fill="#097054"/>
<rect x="406" y="118.769" width="9.23077" height="9.23077" fill="#097054"/>
<rect x="416.769" y="108" width="9.23077" height="9.23077" fill="#097054"/>
<rect x="416.769" y="118.769" width="9.23077" height="9.23077" fill="#097054"/>
<rect x="66" y="113" width="6.92308" height="6.92308" fill="#097054"/>
<rect x="66" y="121.077" width="6.92308" height="6.92308" fill="#097054"/>
<rect x="74.0769" y="113" width="6.92308" height="6.92308" fill="#097054"/>
<rect x="74.0769" y="121.077" width="6.92308" height="6.92308" fill="#097054"/>
<rect x="500" y="113" width="6.92308" height="6.92308" fill="#097054"/>
<rect x="500" y="121.077" width="6.92308" height="6.92308" fill="#097054"/>
<rect x="508.077" y="113" width="6.92308" height="6.92308" fill="#097054"/>
<rect x="508.077" y="121.077" width="6.92308" height="6.92308" fill="#097054"/>
<path d="M113.5 118L82.5 66.5H145.5L113.5 118Z" fill="#ECA143" stroke="#ECA143"/>
<path d="M468.5 118L437.5 66.5H500.5L468.5 118Z" fill="#ECA143" stroke="#ECA143"/>
<path d="M216.5 117.5L174.5 34.5L230 45L286 1.5L216.5 117.5Z" fill="#ECA143" stroke="#ECA143"/>
<path d="M367 117.5L409 34.5L353.5 45L297.5 1.5L367 117.5Z" fill="#ECA143" stroke="#ECA143"/>
<path d="M216.5 117.5L286 1.5L230 44.5L216.5 117.5Z" fill="#D8933D" stroke="#D8933D"/>
<path d="M367 117.5L297.5 1.5L353.5 45L367 117.5Z" fill="#D8933D" stroke="#D8933D"/>
</svg>
