<svg width="151" height="65" viewBox="0 0 151 65" fill="none" xmlns="http://www.w3.org/2000/svg">
<path d="M8.8328 54.673C8.11648 54.673 7.4729 54.5499 6.90208 54.3036C6.34245 54.0574 5.89474 53.6601 5.55897 53.1116C5.23438 52.5632 5.07209 51.8357 5.07209 50.9291V46.0435C5.07209 45.1369 5.23438 44.4094 5.55897 43.8609C5.89474 43.3125 6.34245 42.9152 6.90208 42.6689C7.4729 42.4227 8.09969 42.2996 8.78244 42.2996C9.54353 42.2996 10.2095 42.4283 10.7803 42.6857C11.3511 42.9431 11.7988 43.3013 12.1234 43.7602C12.448 44.2191 12.6103 44.7675 12.6103 45.4055C12.6103 45.7413 12.532 45.9707 12.3753 46.0939C12.2298 46.2058 12.0115 46.2618 11.7205 46.2618C11.4855 46.2618 11.2784 46.2226 11.0993 46.1442C10.9314 46.0547 10.8419 45.898 10.8307 45.6741C10.7971 45.3496 10.7188 45.053 10.5956 44.7843C10.4725 44.5045 10.2711 44.2863 9.99124 44.1296C9.71142 43.9617 9.32528 43.8777 8.8328 43.8777C8.20602 43.8777 7.71354 44.0568 7.35538 44.415C7.00841 44.7619 6.83492 45.3048 6.83492 46.0435V50.9291C6.83492 51.6678 7.00841 52.2162 7.35538 52.5744C7.71354 52.9214 8.20602 53.0948 8.8328 53.0948C9.4484 53.0948 9.93528 52.9214 10.2934 52.5744C10.6516 52.2162 10.8307 51.6678 10.8307 50.9291V49.5524H9.135C8.95592 49.5524 8.81601 49.4796 8.71528 49.3341C8.61455 49.1886 8.56418 49.0207 8.56418 48.8305C8.56418 48.6626 8.61455 48.5059 8.71528 48.3604C8.81601 48.2037 8.95592 48.1253 9.135 48.1253H12.0227C12.213 48.1253 12.3585 48.1869 12.4592 48.31C12.5599 48.4219 12.6103 48.5618 12.6103 48.7297V50.9291C12.6103 51.8357 12.4424 52.5632 12.1066 53.1116C11.7709 53.6601 11.3176 54.0574 10.7467 54.3036C10.1759 54.5499 9.53794 54.673 8.8328 54.673ZM21.117 54.6226C20.9715 54.6226 20.8372 54.5723 20.7141 54.4715C20.6022 54.3708 20.507 54.2477 20.4287 54.1022L17.9607 49.3005H16.2818V53.9847C16.2818 54.1749 16.1867 54.3204 15.9964 54.4212C15.8173 54.5219 15.6159 54.5723 15.392 54.5723C15.1682 54.5723 14.9611 54.5219 14.7708 54.4212C14.5917 54.3204 14.5022 54.1749 14.5022 53.9847V42.8704C14.5022 42.7137 14.5526 42.5794 14.6533 42.4675C14.7652 42.3555 14.9163 42.2996 15.1066 42.2996H18.2965C19.0016 42.2996 19.6452 42.4059 20.2272 42.6186C20.8092 42.82 21.2737 43.1726 21.6207 43.6763C21.9677 44.1687 22.1412 44.8515 22.1412 45.7245C22.1412 46.3961 22.0348 46.9557 21.8222 47.4034C21.6207 47.8511 21.3409 48.2093 20.9827 48.4779C20.6358 48.7353 20.2384 48.9256 19.7907 49.0487L22.1412 53.4642C22.1635 53.4978 22.1803 53.5425 22.1915 53.5985C22.2027 53.6433 22.2083 53.6825 22.2083 53.716C22.2083 53.8615 22.1524 54.007 22.0404 54.1525C21.9285 54.2869 21.7886 54.3988 21.6207 54.4883C21.464 54.5779 21.2961 54.6226 21.117 54.6226ZM16.2818 47.8735H18.2965C18.9233 47.8735 19.4214 47.7224 19.7907 47.4202C20.1713 47.118 20.3615 46.6031 20.3615 45.8756C20.3615 45.1481 20.1713 44.6332 19.7907 44.331C19.4214 44.0288 18.9233 43.8777 18.2965 43.8777H16.2818V47.8735ZM24.0003 54.5723C23.8436 54.5723 23.6757 54.5387 23.4966 54.4715C23.3175 54.4044 23.172 54.3204 23.0601 54.2197C22.9482 54.1078 22.8922 53.9791 22.8922 53.8336C22.8922 53.8 22.8978 53.7496 22.909 53.6825L26.25 42.8032C26.3171 42.6018 26.457 42.4507 26.6697 42.3499C26.8936 42.2492 27.1286 42.1988 27.3748 42.1988C27.6323 42.1988 27.8673 42.2492 28.08 42.3499C28.3038 42.4507 28.4493 42.6018 28.5165 42.8032L31.8407 53.6825C31.8631 53.7496 31.8743 53.8 31.8743 53.8336C31.8743 53.9679 31.8127 54.091 31.6896 54.2029C31.5777 54.3148 31.4322 54.4044 31.2531 54.4715C31.0852 54.5387 30.9173 54.5723 30.7494 54.5723C30.6039 54.5723 30.4752 54.5443 30.3633 54.4883C30.2625 54.4324 30.1898 54.3372 30.145 54.2029L29.4567 51.8189H25.293L24.6215 54.2029C24.5879 54.3372 24.5095 54.4324 24.3864 54.4883C24.2745 54.5443 24.1458 54.5723 24.0003 54.5723ZM25.6959 50.3918H29.0537L27.3748 44.6332L25.6959 50.3918ZM34.0828 54.5723C33.8589 54.5723 33.6519 54.5219 33.4616 54.4212C33.2825 54.3204 33.193 54.1749 33.193 53.9847V42.8872C33.193 42.6745 33.2825 42.5234 33.4616 42.4339C33.6519 42.3443 33.8589 42.2996 34.0828 42.2996C34.2955 42.2996 34.4745 42.3332 34.62 42.4003C34.7767 42.4563 34.9166 42.557 35.0398 42.7025C35.1629 42.848 35.2916 43.0495 35.4259 43.3069L39.153 50.5765V42.8704C39.153 42.6689 39.2426 42.5234 39.4217 42.4339C39.6119 42.3443 39.819 42.2996 40.0429 42.2996C40.2667 42.2996 40.4682 42.3443 40.6473 42.4339C40.8375 42.5234 40.9327 42.6689 40.9327 42.8704V53.9847C40.9327 54.1749 40.8375 54.3204 40.6473 54.4212C40.4682 54.5219 40.2667 54.5723 40.0429 54.5723C39.819 54.5723 39.6175 54.5163 39.4385 54.4044C39.2594 54.2925 39.1083 54.1302 38.9852 53.9175L34.9726 46.2785V53.9847C34.9726 54.1749 34.8775 54.3204 34.6872 54.4212C34.5081 54.5219 34.3066 54.5723 34.0828 54.5723ZM43.9341 54.5723C43.699 54.5723 43.5088 54.5163 43.3633 54.4044C43.2177 54.2925 43.145 54.1581 43.145 54.0014V42.8704C43.145 42.7137 43.2177 42.5794 43.3633 42.4675C43.5088 42.3555 43.699 42.2996 43.9341 42.2996H46.9057C47.6108 42.2996 48.2488 42.4227 48.8196 42.6689C49.4017 42.9152 49.855 43.3125 50.1795 43.8609C50.5153 44.4094 50.6832 45.1369 50.6832 46.0435V50.8283C50.6832 51.7349 50.5153 52.4625 50.1795 53.0109C49.855 53.5593 49.4017 53.9567 48.8196 54.2029C48.2488 54.4491 47.6108 54.5723 46.9057 54.5723H43.9341ZM44.9246 52.9941H46.9057C47.5325 52.9941 48.0194 52.8206 48.3663 52.4737C48.7245 52.1155 48.9036 51.5671 48.9036 50.8283V46.0435C48.9036 45.3048 48.7245 44.7619 48.3663 44.415C48.0194 44.0568 47.5325 43.8777 46.9057 43.8777H44.9246V52.9941ZM52.9874 54.5723C52.8307 54.5723 52.6628 54.5387 52.4837 54.4715C52.3046 54.4044 52.1591 54.3204 52.0472 54.2197C51.9353 54.1078 51.8793 53.9791 51.8793 53.8336C51.8793 53.8 51.8849 53.7496 51.8961 53.6825L55.2371 42.8032C55.3042 42.6018 55.4441 42.4507 55.6568 42.3499C55.8807 42.2492 56.1157 42.1988 56.3619 42.1988C56.6194 42.1988 56.8544 42.2492 57.0671 42.3499C57.2909 42.4507 57.4364 42.6018 57.5036 42.8032L60.8278 53.6825C60.8502 53.7496 60.8614 53.8 60.8614 53.8336C60.8614 53.9679 60.7998 54.091 60.6767 54.2029C60.5648 54.3148 60.4193 54.4044 60.2402 54.4715C60.0723 54.5387 59.9044 54.5723 59.7365 54.5723C59.591 54.5723 59.4623 54.5443 59.3504 54.4883C59.2496 54.4324 59.1769 54.3372 59.1321 54.2029L58.4438 51.8189H54.2801L53.6086 54.2029C53.575 54.3372 53.4966 54.4324 53.3735 54.4883C53.2616 54.5443 53.1329 54.5723 52.9874 54.5723ZM54.683 50.3918H58.0408L56.3619 44.6332L54.683 50.3918ZM62.9692 54.5723C62.7789 54.5723 62.5998 54.5219 62.4319 54.4212C62.264 54.3204 62.1801 54.1749 62.1801 53.9847V42.8704C62.1801 42.6689 62.2696 42.5234 62.4487 42.4339C62.639 42.3443 62.846 42.2996 63.0699 42.2996C63.2937 42.2996 63.4952 42.3443 63.6743 42.4339C63.8646 42.5234 63.9597 42.6689 63.9597 42.8704V52.9941H68.3248C68.5039 52.9941 68.6382 53.0781 68.7278 53.2459C68.8173 53.4026 68.8621 53.5817 68.8621 53.7832C68.8621 53.9735 68.8173 54.1525 68.7278 54.3204C68.6382 54.4883 68.5039 54.5723 68.3248 54.5723H62.9692ZM70.3665 54.5723C70.2098 54.5723 70.0419 54.5387 69.8628 54.4715C69.6838 54.4044 69.5383 54.3204 69.4263 54.2197C69.3144 54.1078 69.2584 53.9791 69.2584 53.8336C69.2584 53.8 69.264 53.7496 69.2752 53.6825L72.6162 42.8032C72.6834 42.6018 72.8233 42.4507 73.0359 42.3499C73.2598 42.2492 73.4948 42.1988 73.7411 42.1988C73.9985 42.1988 74.2336 42.2492 74.4462 42.3499C74.6701 42.4507 74.8156 42.6018 74.8827 42.8032L78.2069 53.6825C78.2293 53.7496 78.2405 53.8 78.2405 53.8336C78.2405 53.9679 78.1789 54.091 78.0558 54.2029C77.9439 54.3148 77.7984 54.4044 77.6193 54.4715C77.4514 54.5387 77.2835 54.5723 77.1156 54.5723C76.9701 54.5723 76.8414 54.5443 76.7295 54.4883C76.6288 54.4324 76.556 54.3372 76.5112 54.2029L75.8229 51.8189H71.6593L70.9877 54.2029C70.9541 54.3372 70.8758 54.4324 70.7527 54.4883C70.6407 54.5443 70.512 54.5723 70.3665 54.5723ZM72.0622 50.3918H75.42L73.7411 44.6332L72.0622 50.3918ZM83.7094 54.5723C83.4743 54.5723 83.284 54.5163 83.1385 54.4044C82.993 54.2925 82.9203 54.1581 82.9203 54.0014V42.8872C82.9203 42.6969 83.0042 42.5514 83.1721 42.4507C83.34 42.3499 83.5191 42.2996 83.7094 42.2996H86.7649C87.3693 42.2996 87.929 42.3779 88.4438 42.5346C88.9587 42.6913 89.3728 42.9823 89.6862 43.4076C89.9996 43.8218 90.1563 44.4206 90.1563 45.2041C90.1563 45.9092 90.0276 46.4912 89.7702 46.9501C89.5239 47.409 89.1769 47.7336 88.7292 47.9239C89.0762 48.0582 89.3784 48.2373 89.6358 48.4611C89.8933 48.6738 90.0947 48.9648 90.2402 49.3341C90.3857 49.6923 90.4585 50.1568 90.4585 50.7276V51.0466C90.4585 51.9084 90.313 52.5968 90.022 53.1116C89.731 53.6265 89.3336 54.0014 88.83 54.2365C88.3263 54.4603 87.7555 54.5723 87.1175 54.5723H83.7094ZM84.6831 52.9941H86.7817C87.3861 52.9941 87.8506 52.8318 88.1752 52.5072C88.511 52.1715 88.6789 51.6398 88.6789 50.9123V50.6437C88.6789 49.9049 88.511 49.3845 88.1752 49.0823C87.8506 48.7801 87.3861 48.629 86.7817 48.629H84.6831V52.9941ZM84.6831 47.2187H86.6978C87.2686 47.2187 87.6883 47.0732 87.957 46.7822C88.2368 46.4912 88.3767 46.0603 88.3767 45.4895C88.3767 45.1089 88.3039 44.8011 88.1584 44.5661C88.0241 44.331 87.8282 44.1575 87.5708 44.0456C87.3134 43.9337 87.0112 43.8777 86.6642 43.8777H84.6831V47.2187ZM95.9776 54.673C95.2613 54.673 94.6121 54.5499 94.0301 54.3036C93.4481 54.0574 92.9892 53.6601 92.6534 53.1116C92.3176 52.5632 92.1497 51.8357 92.1497 50.9291V42.8704C92.1497 42.6689 92.2393 42.5234 92.4183 42.4339C92.5974 42.3443 92.8045 42.2996 93.0395 42.2996C93.2522 42.2996 93.4537 42.3443 93.6439 42.4339C93.8342 42.5234 93.9293 42.6689 93.9293 42.8704V50.9291C93.9293 51.6678 94.1084 52.2162 94.4666 52.5744C94.8248 52.9214 95.3284 53.0948 95.9776 53.0948C96.6156 53.0948 97.1192 52.9214 97.4886 52.5744C97.8579 52.2162 98.0426 51.6678 98.0426 50.9291V42.8704C98.0426 42.6689 98.1322 42.5234 98.3112 42.4339C98.4903 42.3443 98.6974 42.2996 98.9324 42.2996C99.1451 42.2996 99.3466 42.3443 99.5368 42.4339C99.7271 42.5234 99.8222 42.6689 99.8222 42.8704V50.9291C99.8222 51.8357 99.6488 52.5632 99.3018 53.1116C98.966 53.6601 98.5071 54.0574 97.9251 54.3036C97.3431 54.5499 96.6939 54.673 95.9776 54.673ZM102.862 54.5723C102.638 54.5723 102.431 54.5219 102.24 54.4212C102.061 54.3204 101.972 54.1749 101.972 53.9847V42.8704C101.972 42.6689 102.061 42.5234 102.24 42.4339C102.431 42.3443 102.638 42.2996 102.862 42.2996C103.085 42.2996 103.287 42.3443 103.466 42.4339C103.656 42.5234 103.751 42.6689 103.751 42.8704V53.9847C103.751 54.1749 103.656 54.3204 103.466 54.4212C103.287 54.5219 103.085 54.5723 102.862 54.5723ZM106.761 54.5723C106.571 54.5723 106.392 54.5219 106.224 54.4212C106.056 54.3204 105.972 54.1749 105.972 53.9847V42.8704C105.972 42.6689 106.062 42.5234 106.241 42.4339C106.431 42.3443 106.638 42.2996 106.862 42.2996C107.086 42.2996 107.287 42.3443 107.466 42.4339C107.657 42.5234 107.752 42.6689 107.752 42.8704V52.9941H112.117C112.296 52.9941 112.43 53.0781 112.52 53.2459C112.609 53.4026 112.654 53.5817 112.654 53.7832C112.654 53.9735 112.609 54.1525 112.52 54.3204C112.43 54.4883 112.296 54.5723 112.117 54.5723H106.761ZM114.729 54.5723C114.494 54.5723 114.304 54.5163 114.159 54.4044C114.013 54.2925 113.94 54.1581 113.94 54.0014V42.8704C113.94 42.7137 114.013 42.5794 114.159 42.4675C114.304 42.3555 114.494 42.2996 114.729 42.2996H117.701C118.406 42.2996 119.044 42.4227 119.615 42.6689C120.197 42.9152 120.65 43.3125 120.975 43.8609C121.311 44.4094 121.479 45.1369 121.479 46.0435V50.8283C121.479 51.7349 121.311 52.4625 120.975 53.0109C120.65 53.5593 120.197 53.9567 119.615 54.2029C119.044 54.4491 118.406 54.5723 117.701 54.5723H114.729ZM115.72 52.9941H117.701C118.328 52.9941 118.815 52.8206 119.162 52.4737C119.52 52.1155 119.699 51.5671 119.699 50.8283V46.0435C119.699 45.3048 119.52 44.7619 119.162 44.415C118.815 44.0568 118.328 43.8777 117.701 43.8777H115.72V52.9941ZM124.354 54.5723C124.163 54.5723 123.984 54.5219 123.816 54.4212C123.648 54.3204 123.565 54.1749 123.565 53.9847V42.8872C123.565 42.6969 123.648 42.5514 123.816 42.4507C123.984 42.3499 124.163 42.2996 124.354 42.2996H130.33C130.543 42.2996 130.694 42.3835 130.784 42.5514C130.873 42.7193 130.918 42.8928 130.918 43.0719C130.918 43.2845 130.868 43.4748 130.767 43.6427C130.666 43.7994 130.521 43.8777 130.33 43.8777H125.344V47.7224H127.93C128.12 47.7224 128.265 47.7951 128.366 47.9406C128.467 48.0862 128.517 48.254 128.517 48.4443C128.517 48.601 128.472 48.7577 128.383 48.9144C128.293 49.0599 128.142 49.1327 127.93 49.1327H125.344V52.9941H130.33C130.521 52.9941 130.666 53.0725 130.767 53.2292C130.868 53.3858 130.918 53.5761 130.918 53.8C130.918 53.9791 130.873 54.1525 130.784 54.3204C130.694 54.4883 130.543 54.5723 130.33 54.5723H124.354ZM138.951 54.6226C138.805 54.6226 138.671 54.5723 138.548 54.4715C138.436 54.3708 138.341 54.2477 138.263 54.1022L135.795 49.3005H134.116V53.9847C134.116 54.1749 134.021 54.3204 133.83 54.4212C133.651 54.5219 133.45 54.5723 133.226 54.5723C133.002 54.5723 132.795 54.5219 132.605 54.4212C132.426 54.3204 132.336 54.1749 132.336 53.9847V42.8704C132.336 42.7137 132.386 42.5794 132.487 42.4675C132.599 42.3555 132.75 42.2996 132.94 42.2996H136.13C136.835 42.2996 137.479 42.4059 138.061 42.6186C138.643 42.82 139.108 43.1726 139.455 43.6763C139.802 44.1687 139.975 44.8515 139.975 45.7245C139.975 46.3961 139.869 46.9557 139.656 47.4034C139.455 47.8511 139.175 48.2093 138.817 48.4779C138.47 48.7353 138.072 48.9256 137.625 49.0487L139.975 53.4642C139.997 53.4978 140.014 53.5425 140.025 53.5985C140.037 53.6433 140.042 53.6825 140.042 53.716C140.042 53.8615 139.986 54.007 139.874 54.1525C139.762 54.2869 139.622 54.3988 139.455 54.4883C139.298 54.5779 139.13 54.6226 138.951 54.6226ZM134.116 47.8735H136.13C136.757 47.8735 137.255 47.7224 137.625 47.4202C138.005 47.118 138.195 46.6031 138.195 45.8756C138.195 45.1481 138.005 44.6332 137.625 44.331C137.255 44.0288 136.757 43.8777 136.13 43.8777H134.116V47.8735ZM144.705 54.7066C143.978 54.7066 143.334 54.6002 142.774 54.3876C142.215 54.1749 141.778 53.9175 141.465 53.6153C141.151 53.3019 140.995 53.0053 140.995 52.7255C140.995 52.5912 141.028 52.4513 141.095 52.3058C141.174 52.1603 141.269 52.0371 141.381 51.9364C141.504 51.8245 141.633 51.7685 141.767 51.7685C141.924 51.7685 142.069 51.8357 142.203 51.97C142.349 52.0931 142.522 52.2442 142.724 52.4233C142.925 52.6024 143.177 52.7591 143.479 52.8934C143.782 53.0277 144.168 53.0948 144.638 53.0948C145.041 53.0948 145.399 53.0333 145.712 52.9102C146.037 52.7759 146.289 52.58 146.468 52.3226C146.658 52.0539 146.753 51.7182 146.753 51.3152C146.753 50.8899 146.653 50.5373 146.451 50.2575C146.261 49.9777 145.998 49.7427 145.662 49.5524C145.337 49.3621 144.985 49.1886 144.604 49.0319C144.224 48.8752 143.838 48.7073 143.446 48.5283C143.054 48.3492 142.696 48.1365 142.371 47.8903C142.047 47.6329 141.784 47.3139 141.582 46.9333C141.392 46.5416 141.297 46.0547 141.297 45.4727C141.297 44.8571 141.409 44.3422 141.633 43.9281C141.868 43.514 142.175 43.1838 142.556 42.9376C142.937 42.6913 143.356 42.5178 143.815 42.4171C144.274 42.3052 144.727 42.2492 145.175 42.2492C145.455 42.2492 145.763 42.2716 146.099 42.3164C146.445 42.3499 146.781 42.4171 147.106 42.5178C147.43 42.6074 147.699 42.7305 147.912 42.8872C148.124 43.0439 148.231 43.2342 148.231 43.458C148.231 43.5699 148.203 43.7042 148.147 43.8609C148.091 44.0064 148.007 44.1352 147.895 44.2471C147.794 44.359 147.66 44.415 147.492 44.415C147.346 44.415 147.184 44.3646 147.005 44.2639C146.826 44.152 146.591 44.0456 146.3 43.9449C146.02 43.833 145.645 43.777 145.175 43.777C144.772 43.777 144.408 43.833 144.084 43.9449C143.77 44.0568 143.524 44.2247 143.345 44.4486C143.166 44.6612 143.077 44.9466 143.077 45.3048C143.077 45.663 143.172 45.9596 143.362 46.1946C143.563 46.4185 143.826 46.6143 144.151 46.7822C144.476 46.9389 144.828 47.09 145.209 47.2355C145.6 47.381 145.987 47.5545 146.367 47.756C146.759 47.9462 147.117 48.1813 147.442 48.4611C147.777 48.7409 148.04 49.0991 148.231 49.5356C148.432 49.9609 148.533 50.4926 148.533 51.1305C148.533 51.9364 148.365 52.608 148.029 53.1452C147.705 53.6713 147.251 54.063 146.669 54.3204C146.099 54.5779 145.444 54.7066 144.705 54.7066Z" fill="#097054"/>
<path d="M47.1854 62.682C47.083 62.682 46.9733 62.6625 46.8562 62.6235C46.7441 62.5796 46.649 62.5235 46.5709 62.4552C46.4929 62.3821 46.4539 62.3016 46.4539 62.2138C46.4539 62.1992 46.4588 62.1724 46.4685 62.1334L47.8291 57.6712C47.8681 57.5444 47.9608 57.4493 48.1071 57.3859C48.2534 57.3225 48.4094 57.2908 48.5753 57.2908C48.7459 57.2908 48.902 57.3225 49.0434 57.3859C49.1897 57.4493 49.2824 57.5444 49.3214 57.6712L50.6893 62.1334C50.6991 62.1724 50.7039 62.1992 50.7039 62.2138C50.7039 62.3016 50.6649 62.3821 50.5869 62.4552C50.5089 62.5235 50.4138 62.5796 50.3016 62.6235C50.1894 62.6625 50.0797 62.682 49.9724 62.682C49.8798 62.682 49.7993 62.6674 49.731 62.6381C49.6676 62.604 49.6237 62.5479 49.5994 62.4699L49.3506 61.5555H47.8072L47.5585 62.4699C47.539 62.5479 47.4951 62.604 47.4268 62.6381C47.3585 62.6674 47.2781 62.682 47.1854 62.682ZM48.0413 60.6777H49.1093L48.5753 58.7173L48.0413 60.6777ZM51.6978 62.682C51.5564 62.682 51.4247 62.6527 51.3028 62.5942C51.1857 62.5357 51.1272 62.4479 51.1272 62.3309V57.6858C51.1272 57.5639 51.1857 57.4761 51.3028 57.4225C51.4247 57.364 51.5564 57.3347 51.6978 57.3347C51.8343 57.3347 51.9465 57.3469 52.0343 57.3713C52.1269 57.3908 52.2099 57.4396 52.283 57.5176C52.361 57.5956 52.4464 57.7249 52.539 57.9053L53.7241 60.1656V57.6785C53.7241 57.5566 53.7826 57.4688 53.8996 57.4152C54.0215 57.3615 54.1532 57.3347 54.2946 57.3347C54.4361 57.3347 54.5653 57.3615 54.6823 57.4152C54.8042 57.4688 54.8652 57.5566 54.8652 57.6785V62.3309C54.8652 62.4479 54.8042 62.5357 54.6823 62.5942C54.5653 62.6527 54.4361 62.682 54.2946 62.682C54.163 62.682 54.041 62.6625 53.9289 62.6235C53.8167 62.5845 53.7265 62.5016 53.6582 62.3748L52.2684 59.8438V62.3309C52.2684 62.4479 52.2074 62.5357 52.0855 62.5942C51.9685 62.6527 51.8392 62.682 51.6978 62.682ZM56.1537 62.682C56.0025 62.682 55.8806 62.6479 55.7879 62.5796C55.7001 62.5113 55.6563 62.4309 55.6563 62.3382V57.6785C55.6563 57.5859 55.7001 57.5054 55.7879 57.4371C55.8806 57.3689 56.0025 57.3347 56.1537 57.3347H57.4484C57.7849 57.3347 58.0897 57.3908 58.3628 57.503C58.6359 57.6151 58.8505 57.798 59.0065 58.0516C59.1675 58.3052 59.2479 58.6417 59.2479 59.0611V60.9557C59.2479 61.3751 59.1675 61.7115 59.0065 61.9651C58.8505 62.2187 58.6359 62.4016 58.3628 62.5138C58.0897 62.6259 57.7849 62.682 57.4484 62.682H56.1537ZM56.7974 61.6872H57.4484C57.6533 61.6872 57.8142 61.6286 57.9312 61.5116C58.0483 61.3897 58.1068 61.2044 58.1068 60.9557V59.0611C58.1068 58.8124 58.0483 58.6295 57.9312 58.5124C57.8142 58.3905 57.6533 58.3296 57.4484 58.3296H56.7974V61.6872ZM63.1325 62.7259C62.8155 62.7259 62.5229 62.6698 62.2547 62.5577C61.9865 62.4455 61.7719 62.2626 61.611 62.009C61.4549 61.7554 61.3769 61.4189 61.3769 60.9996V59.0611C61.3769 58.6417 61.4549 58.3052 61.611 58.0516C61.7719 57.798 61.9865 57.6151 62.2547 57.503C62.5229 57.3908 62.8155 57.3347 63.1325 57.3347C63.4836 57.3347 63.7957 57.3932 64.0688 57.5103C64.3468 57.6224 64.5662 57.7858 64.7272 58.0004C64.8881 58.215 64.9686 58.4783 64.9686 58.7904C64.9686 59.0099 64.9222 59.1562 64.8296 59.2293C64.7369 59.2976 64.5931 59.3317 64.398 59.3317C64.2468 59.3317 64.1152 59.3073 64.003 59.2586C63.8957 59.2098 63.8372 59.1196 63.8274 58.9879C63.8274 58.9392 63.8201 58.8782 63.8055 58.805C63.7957 58.7319 63.7713 58.6587 63.7323 58.5856C63.6933 58.5124 63.6299 58.4515 63.5421 58.4027C63.4544 58.3539 63.3324 58.3296 63.1764 58.3296C62.9667 58.3296 62.8033 58.3905 62.6863 58.5124C62.5741 58.6295 62.518 58.8124 62.518 59.0611V60.9996C62.518 61.2483 62.5766 61.4336 62.6936 61.5555C62.8106 61.6725 62.974 61.7311 63.1837 61.7311C63.33 61.7311 63.4446 61.7067 63.5275 61.6579C63.6153 61.6091 63.6787 61.5482 63.7177 61.475C63.7567 61.397 63.7835 61.3165 63.7982 61.2336C63.8128 61.1507 63.8226 61.0727 63.8274 60.9996C63.8372 60.863 63.8957 60.7728 64.003 60.7289C64.1152 60.6801 64.2444 60.6557 64.3907 60.6557C64.5906 60.6557 64.7369 60.6923 64.8296 60.7655C64.9222 60.8337 64.9686 60.9776 64.9686 61.1971C64.9686 61.5189 64.8881 61.7944 64.7272 62.0237C64.5662 62.2529 64.3468 62.4284 64.0688 62.5503C63.7957 62.6674 63.4836 62.7259 63.1325 62.7259ZM67.2766 62.7259C66.9401 62.7259 66.6354 62.6698 66.3623 62.5577C66.094 62.4455 65.8795 62.2626 65.7185 62.009C65.5625 61.7554 65.4845 61.4189 65.4845 60.9996V59.0611C65.4845 58.6417 65.5625 58.3052 65.7185 58.0516C65.8795 57.798 66.094 57.6151 66.3623 57.503C66.6354 57.3908 66.9401 57.3347 67.2766 57.3347C67.6131 57.3347 67.9179 57.3908 68.191 57.503C68.4641 57.6151 68.6787 57.798 68.8347 58.0516C68.9957 58.3052 69.0761 58.6417 69.0761 59.0611V60.9996C69.0761 61.4189 68.9957 61.7554 68.8347 62.009C68.6787 62.2626 68.4641 62.4455 68.191 62.5577C67.9179 62.6698 67.6131 62.7259 67.2766 62.7259ZM67.2766 61.7311C67.4815 61.7311 67.6424 61.6725 67.7594 61.5555C67.8765 61.4385 67.935 61.2531 67.935 60.9996V59.0611C67.935 58.8075 67.8765 58.6222 67.7594 58.5051C67.6424 58.3881 67.4815 58.3296 67.2766 58.3296C67.0718 58.3296 66.9109 58.3881 66.7938 58.5051C66.6817 58.6222 66.6256 58.8075 66.6256 59.0611V60.9996C66.6256 61.2531 66.6817 61.4385 66.7938 61.5555C66.9109 61.6725 67.0718 61.7311 67.2766 61.7311ZM70.3783 62.682C70.2368 62.682 70.1052 62.6527 69.9833 62.5942C69.8662 62.5357 69.8077 62.4479 69.8077 62.3309V57.6858C69.8077 57.5639 69.8662 57.4761 69.9833 57.4225C70.1052 57.364 70.2368 57.3347 70.3783 57.3347C70.5148 57.3347 70.627 57.3469 70.7148 57.3713C70.8074 57.3908 70.8903 57.4396 70.9635 57.5176C71.0415 57.5956 71.1268 57.7249 71.2195 57.9053L72.4045 60.1656V57.6785C72.4045 57.5566 72.4631 57.4688 72.5801 57.4152C72.702 57.3615 72.8337 57.3347 72.9751 57.3347C73.1165 57.3347 73.2458 57.3615 73.3628 57.4152C73.4847 57.4688 73.5457 57.5566 73.5457 57.6785V62.3309C73.5457 62.4479 73.4847 62.5357 73.3628 62.5942C73.2458 62.6527 73.1165 62.682 72.9751 62.682C72.8434 62.682 72.7215 62.6625 72.6094 62.6235C72.4972 62.5845 72.407 62.5016 72.3387 62.3748L70.9488 59.8438V62.3309C70.9488 62.4479 70.8879 62.5357 70.766 62.5942C70.6489 62.6527 70.5197 62.682 70.3783 62.682ZM75.9241 62.682C75.7827 62.682 75.651 62.6527 75.5291 62.5942C75.412 62.5357 75.3535 62.4479 75.3535 62.3309V58.3588H74.344C74.2368 58.3588 74.1514 58.3076 74.088 58.2052C74.0295 58.0979 74.0002 57.976 74.0002 57.8395C74.0002 57.7175 74.0271 57.6029 74.0807 57.4957C74.1343 57.3884 74.2221 57.3347 74.344 57.3347H77.5041C77.6261 57.3347 77.7138 57.3884 77.7675 57.4957C77.8211 57.6029 77.8479 57.7175 77.8479 57.8395C77.8479 57.976 77.8187 58.0979 77.7602 58.2052C77.7016 58.3076 77.6163 58.3588 77.5041 58.3588H76.4947V62.3309C76.4947 62.4479 76.4337 62.5357 76.3118 62.5942C76.1947 62.6527 76.0655 62.682 75.9241 62.682ZM81.2933 62.7259C81.2201 62.7259 81.1494 62.7113 81.0811 62.682C81.0177 62.6479 80.9665 62.5918 80.9275 62.5138L79.9254 60.568H79.4426V62.3309C79.4426 62.4479 79.3816 62.5357 79.2597 62.5942C79.1426 62.6527 79.0134 62.682 78.872 62.682C78.7306 62.682 78.5989 62.6527 78.477 62.5942C78.3599 62.5357 78.3014 62.4479 78.3014 62.3309V57.6785C78.3014 57.5859 78.3331 57.5054 78.3965 57.4371C78.4599 57.3689 78.5453 57.3347 78.6525 57.3347H80.1667C80.5032 57.3347 80.8056 57.3835 81.0738 57.481C81.3469 57.5737 81.5639 57.7346 81.7248 57.9638C81.8858 58.1881 81.9662 58.5002 81.9662 58.9001C81.9662 59.1732 81.9272 59.4098 81.8492 59.6097C81.7761 59.8048 81.6712 59.9657 81.5347 60.0925C81.403 60.2193 81.2518 60.3168 81.0811 60.3851L81.9736 62.0017C81.9882 62.0212 81.9979 62.0432 82.0028 62.0675C82.0077 62.0919 82.0101 62.1139 82.0101 62.1334C82.0101 62.226 81.9736 62.3187 81.9004 62.4114C81.8273 62.504 81.7346 62.5796 81.6224 62.6381C81.5152 62.6966 81.4054 62.7259 81.2933 62.7259ZM79.4426 59.6902H80.1667C80.3716 59.6902 80.5325 59.6414 80.6495 59.5439C80.7666 59.4414 80.8251 59.2634 80.8251 59.0099C80.8251 58.7514 80.7666 58.5734 80.6495 58.4759C80.5325 58.3783 80.3716 58.3296 80.1667 58.3296H79.4426V59.6902ZM82.939 62.682C82.8366 62.682 82.7269 62.6625 82.6099 62.6235C82.4977 62.5796 82.4026 62.5235 82.3246 62.4552C82.2465 62.3821 82.2075 62.3016 82.2075 62.2138C82.2075 62.1992 82.2124 62.1724 82.2222 62.1334L83.5828 57.6712C83.6218 57.5444 83.7144 57.4493 83.8607 57.3859C84.007 57.3225 84.1631 57.2908 84.3289 57.2908C84.4996 57.2908 84.6556 57.3225 84.797 57.3859C84.9433 57.4493 85.036 57.5444 85.075 57.6712L86.4429 62.1334C86.4527 62.1724 86.4576 62.1992 86.4576 62.2138C86.4576 62.3016 86.4185 62.3821 86.3405 62.4552C86.2625 62.5235 86.1674 62.5796 86.0552 62.6235C85.9431 62.6625 85.8333 62.682 85.7261 62.682C85.6334 62.682 85.5529 62.6674 85.4847 62.6381C85.4213 62.604 85.3774 62.5479 85.353 62.4699L85.1043 61.5555H83.5608L83.3121 62.4699C83.2926 62.5479 83.2487 62.604 83.1804 62.6381C83.1122 62.6674 83.0317 62.682 82.939 62.682ZM83.7949 60.6777H84.8629L84.3289 58.7173L83.7949 60.6777ZM88.5779 62.7259C88.261 62.7259 87.9684 62.6698 87.7001 62.5577C87.4319 62.4455 87.2174 62.2626 87.0564 62.009C86.9004 61.7554 86.8223 61.4189 86.8223 60.9996V59.0611C86.8223 58.6417 86.9004 58.3052 87.0564 58.0516C87.2174 57.798 87.4319 57.6151 87.7001 57.503C87.9684 57.3908 88.261 57.3347 88.5779 57.3347C88.9291 57.3347 89.2412 57.3932 89.5143 57.5103C89.7922 57.6224 90.0117 57.7858 90.1726 58.0004C90.3336 58.215 90.414 58.4783 90.414 58.7904C90.414 59.0099 90.3677 59.1562 90.275 59.2293C90.1824 59.2976 90.0385 59.3317 89.8434 59.3317C89.6923 59.3317 89.5606 59.3073 89.4484 59.2586C89.3411 59.2098 89.2826 59.1196 89.2729 58.9879C89.2729 58.9392 89.2656 58.8782 89.2509 58.805C89.2412 58.7319 89.2168 58.6587 89.1778 58.5856C89.1388 58.5124 89.0754 58.4515 88.9876 58.4027C88.8998 58.3539 88.7779 58.3296 88.6218 58.3296C88.4121 58.3296 88.2488 58.3905 88.1317 58.5124C88.0196 58.6295 87.9635 58.8124 87.9635 59.0611V60.9996C87.9635 61.2483 88.022 61.4336 88.139 61.5555C88.2561 61.6725 88.4195 61.7311 88.6292 61.7311C88.7755 61.7311 88.8901 61.7067 88.973 61.6579C89.0607 61.6091 89.1241 61.5482 89.1631 61.475C89.2022 61.397 89.229 61.3165 89.2436 61.2336C89.2582 61.1507 89.268 61.0727 89.2729 60.9996C89.2826 60.863 89.3411 60.7728 89.4484 60.7289C89.5606 60.6801 89.6898 60.6557 89.8361 60.6557C90.0361 60.6557 90.1824 60.6923 90.275 60.7655C90.3677 60.8337 90.414 60.9776 90.414 61.1971C90.414 61.5189 90.3336 61.7944 90.1726 62.0237C90.0117 62.2529 89.7922 62.4284 89.5143 62.5503C89.2412 62.6674 88.9291 62.7259 88.5779 62.7259ZM92.5758 62.682C92.4344 62.682 92.3027 62.6527 92.1808 62.5942C92.0637 62.5357 92.0052 62.4479 92.0052 62.3309V58.3588H90.9957C90.8884 58.3588 90.8031 58.3076 90.7397 58.2052C90.6812 58.0979 90.6519 57.976 90.6519 57.8395C90.6519 57.7175 90.6787 57.6029 90.7324 57.4957C90.786 57.3884 90.8738 57.3347 90.9957 57.3347H94.1558C94.2777 57.3347 94.3655 57.3884 94.4192 57.4957C94.4728 57.6029 94.4996 57.7175 94.4996 57.8395C94.4996 57.976 94.4704 58.0979 94.4119 58.2052C94.3533 58.3076 94.268 58.3588 94.1558 58.3588H93.1464V62.3309C93.1464 62.4479 93.0854 62.5357 92.9635 62.5942C92.8464 62.6527 92.7172 62.682 92.5758 62.682ZM96.601 62.7259C96.2646 62.7259 95.9598 62.6698 95.6867 62.5577C95.4185 62.4455 95.2039 62.2626 95.0429 62.009C94.8869 61.7554 94.8089 61.4189 94.8089 60.9996V59.0611C94.8089 58.6417 94.8869 58.3052 95.0429 58.0516C95.2039 57.798 95.4185 57.6151 95.6867 57.503C95.9598 57.3908 96.2646 57.3347 96.601 57.3347C96.9375 57.3347 97.2423 57.3908 97.5154 57.503C97.7885 57.6151 98.0031 57.798 98.1591 58.0516C98.3201 58.3052 98.4005 58.6417 98.4005 59.0611V60.9996C98.4005 61.4189 98.3201 61.7554 98.1591 62.009C98.0031 62.2626 97.7885 62.4455 97.5154 62.5577C97.2423 62.6698 96.9375 62.7259 96.601 62.7259ZM96.601 61.7311C96.8059 61.7311 96.9668 61.6725 97.0838 61.5555C97.2009 61.4385 97.2594 61.2531 97.2594 60.9996V59.0611C97.2594 58.8075 97.2009 58.6222 97.0838 58.5051C96.9668 58.3881 96.8059 58.3296 96.601 58.3296C96.3962 58.3296 96.2353 58.3881 96.1183 58.5051C96.0061 58.6222 95.95 58.8075 95.95 59.0611V60.9996C95.95 61.2531 96.0061 61.4385 96.1183 61.5555C96.2353 61.6725 96.3962 61.7311 96.601 61.7311ZM102.124 62.7259C102.051 62.7259 101.98 62.7113 101.912 62.682C101.848 62.6479 101.797 62.5918 101.758 62.5138L100.756 60.568H100.273V62.3309C100.273 62.4479 100.212 62.5357 100.09 62.5942C99.9733 62.6527 99.8441 62.682 99.7027 62.682C99.5613 62.682 99.4296 62.6527 99.3077 62.5942C99.1906 62.5357 99.1321 62.4479 99.1321 62.3309V57.6785C99.1321 57.5859 99.1638 57.5054 99.2272 57.4371C99.2906 57.3689 99.3759 57.3347 99.4832 57.3347H100.997C101.334 57.3347 101.636 57.3835 101.904 57.481C102.178 57.5737 102.395 57.7346 102.556 57.9638C102.716 58.1881 102.797 58.5002 102.797 58.9001C102.797 59.1732 102.758 59.4098 102.68 59.6097C102.607 59.8048 102.502 59.9657 102.365 60.0925C102.234 60.2193 102.082 60.3168 101.912 60.3851L102.804 62.0017C102.819 62.0212 102.829 62.0432 102.834 62.0675C102.838 62.0919 102.841 62.1139 102.841 62.1334C102.841 62.226 102.804 62.3187 102.731 62.4114C102.658 62.504 102.565 62.5796 102.453 62.6381C102.346 62.6966 102.236 62.7259 102.124 62.7259ZM100.273 59.6902H100.997C101.202 59.6902 101.363 59.6414 101.48 59.5439C101.597 59.4414 101.656 59.2634 101.656 59.0099C101.656 58.7514 101.597 58.5734 101.48 58.4759C101.363 58.3783 101.202 58.3296 100.997 58.3296H100.273V59.6902ZM104.911 62.7552C104.594 62.7552 104.301 62.7088 104.033 62.6162C103.765 62.5235 103.55 62.4065 103.389 62.2651C103.228 62.1187 103.148 61.9651 103.148 61.8042C103.148 61.7213 103.17 61.6335 103.214 61.5409C103.258 61.4433 103.316 61.3604 103.389 61.2922C103.467 61.2239 103.553 61.1897 103.645 61.1897C103.733 61.1897 103.814 61.2166 103.887 61.2702C103.965 61.3238 104.048 61.3872 104.135 61.4604C104.228 61.5335 104.333 61.5969 104.45 61.6506C104.572 61.7042 104.718 61.7311 104.889 61.7311C105.001 61.7311 105.111 61.7164 105.218 61.6872C105.33 61.653 105.42 61.6018 105.489 61.5335C105.562 61.4604 105.598 61.3653 105.598 61.2483C105.598 61.1215 105.557 61.0142 105.474 60.9264C105.391 60.8337 105.279 60.7508 105.138 60.6777C105.001 60.6045 104.85 60.5314 104.684 60.4582C104.523 60.3802 104.36 60.2973 104.194 60.2095C104.028 60.1169 103.875 60.0096 103.733 59.8877C103.597 59.7609 103.487 59.6097 103.404 59.4341C103.321 59.2586 103.28 59.0489 103.28 58.805C103.28 58.5319 103.333 58.3003 103.441 58.1101C103.548 57.915 103.692 57.759 103.872 57.642C104.053 57.52 104.253 57.4323 104.472 57.3786C104.696 57.3201 104.923 57.2908 105.152 57.2908C105.25 57.2908 105.379 57.2981 105.54 57.3128C105.701 57.3274 105.862 57.3567 106.023 57.4006C106.189 57.4444 106.328 57.5103 106.44 57.5981C106.552 57.681 106.608 57.7931 106.608 57.9346C106.608 57.9979 106.591 58.0784 106.557 58.1759C106.527 58.2686 106.479 58.3515 106.41 58.4247C106.347 58.4978 106.262 58.5344 106.154 58.5344C106.067 58.5344 105.984 58.5124 105.906 58.4686C105.833 58.4198 105.737 58.3735 105.62 58.3296C105.508 58.2808 105.352 58.2564 105.152 58.2564C104.982 58.2564 104.84 58.2784 104.728 58.3222C104.621 58.3613 104.543 58.4149 104.494 58.4832C104.445 58.5466 104.421 58.6173 104.421 58.6953C104.421 58.7977 104.462 58.8879 104.545 58.966C104.628 59.0391 104.738 59.1098 104.874 59.1781C105.016 59.2415 105.167 59.3098 105.328 59.3829C105.494 59.4512 105.659 59.5341 105.825 59.6316C105.991 59.7243 106.142 59.8365 106.279 59.9681C106.42 60.0998 106.532 60.2607 106.615 60.4509C106.698 60.6411 106.74 60.8679 106.74 61.1312C106.74 61.4823 106.659 61.7798 106.498 62.0237C106.342 62.2626 106.128 62.4455 105.855 62.5723C105.581 62.6942 105.267 62.7552 104.911 62.7552Z" fill="#ECA143"/>
<path d="M0 32.8535L12.2354 32.479C12.3793 32.4746 12.4983 32.59 12.4983 32.7339V32.9732C12.4983 33.1171 12.3793 33.2325 12.2354 33.2281L0 32.8535Z" fill="#097054"/>
<path d="M11.2227 32.5817L20.0228 17.9321L20.2415 18.0635C20.8453 18.4262 21.0407 19.2097 20.678 19.8135L12.6659 33.1511C12.5934 33.2718 12.4367 33.3109 12.3159 33.2384L11.2227 32.5817Z" fill="#097054"/>
<path d="M30.353 34.2563H28.0574V32.981H30.353V34.2563Z" fill="#097054"/>
<path d="M56.8799 34.0013H53.9466V32.9811H56.8799V34.0013Z" fill="#097054"/>
<path d="M20.522 18.3252L29.5187 33.3043L27.9881 34.2236L19.648 20.3378C19.2854 19.734 19.4808 18.9505 20.0847 18.5879L20.522 18.3252Z" fill="#097054"/>
<path d="M28.5674 33.3276L42.9517 9.37866L43.6077 9.77265C44.2115 10.1353 44.407 10.9188 44.0443 11.5226L30.5793 33.941C30.4342 34.1825 30.1209 34.2607 29.8793 34.1156L28.5674 33.3276Z" fill="#097054"/>
<path d="M43.6499 9.49365L55.7215 33.1276L53.9043 34.0557L42.4128 11.5576C42.0924 10.9303 42.3412 10.1621 42.9684 9.84172L43.6499 9.49365Z" fill="#097054"/>
<path d="M54.8188 32.9668L74.1134 0.842524L74.9881 1.36785C75.5919 1.73051 75.7874 2.51399 75.4247 3.1178L57.0494 33.7115C56.9044 33.953 56.591 34.0312 56.3495 33.8861L54.8188 32.9668Z" fill="#097054"/>
<path d="M74.9175 0.842529L94.0691 32.7288L92.1012 33.9108L73.6062 3.1178C73.2435 2.51399 73.439 1.73052 74.0428 1.36785L74.9175 0.842529Z" fill="#097054"/>
<path d="M151 32.8535L136.468 32.4777C136.324 32.474 136.206 32.5892 136.206 32.7327V32.9744C136.206 33.1179 136.324 33.2331 136.468 33.2294L151 32.8535Z" fill="#097054"/>
<path d="M137.43 32.5817L128.63 17.9321L128.411 18.0635C127.808 18.4262 127.612 19.2097 127.975 19.8135L135.987 33.1511C136.059 33.2718 136.216 33.3109 136.337 33.2384L137.43 32.5817Z" fill="#097054"/>
<path d="M118.3 34.2563H120.596V32.981H118.3V34.2563Z" fill="#097054"/>
<path d="M91.7729 34.0013H94.7062V32.9811H91.7729V34.0013Z" fill="#097054"/>
<path d="M128.132 18.3252L119.135 33.3043L120.666 34.2236L129.006 20.3378C129.368 19.734 129.173 18.9505 128.569 18.5879L128.132 18.3252Z" fill="#097054"/>
<path d="M120.085 33.3276L105.701 9.37866L105.045 9.77265C104.441 10.1353 104.246 10.9188 104.609 11.5226L118.074 33.941C118.219 34.1825 118.532 34.2607 118.773 34.1156L120.085 33.3276Z" fill="#097054"/>
<path d="M105.003 9.49365L92.9313 33.1276L94.7485 34.0557L106.24 11.5576C106.56 10.9303 106.312 10.1621 105.684 9.84172L105.003 9.49365Z" fill="#097054"/>
<path d="M93.8345 32.9668L74.5399 0.842524L73.6653 1.36785C73.0614 1.73051 72.866 2.51399 73.2286 3.1178L91.6039 33.7115C91.7489 33.953 92.0623 34.0312 92.3039 33.8861L93.8345 32.9668Z" fill="#097054"/>
<path d="M73.7363 0.842529L54.5847 32.7288L56.5526 33.9108L75.0476 3.1178C75.4103 2.51399 75.2148 1.73052 74.611 1.36785L73.7363 0.842529Z" fill="#097054"/>
<rect y="36.5397" width="151" height="1.80993" rx="0.904966" fill="#ECA143"/>
<rect y="59.5081" width="43.3615" height="1.78547" rx="0.892736" fill="#ECA143"/>
<rect x="107.638" y="59.5081" width="43.3615" height="1.78547" rx="0.892736" fill="#ECA143"/>
<path d="M78.3061 26.8593C78.3061 28.6906 76.8215 30.1752 74.9902 30.1752C73.1589 30.1752 71.6743 28.6906 71.6743 26.8593C71.6743 25.028 73.1589 23.5435 74.9902 23.5435C76.8215 23.5435 78.3061 25.028 78.3061 26.8593Z" fill="#ECA143"/>
<rect x="71.6743" y="26.8595" width="6.63176" height="3.57095" fill="white"/>
<rect x="71.6743" y="27.3695" width="3.06081" height="3.06081" fill="#097054"/>
<rect x="71.6743" y="30.9404" width="3.06081" height="3.06081" fill="#097054"/>
<rect x="75.2451" y="27.3695" width="3.06081" height="3.06081" fill="#097054"/>
<rect x="75.2451" y="30.9404" width="3.06081" height="3.06081" fill="#097054"/>
<rect x="39.5352" y="28.3899" width="2.35447" height="2.35447" fill="#097054"/>
<rect x="39.5352" y="31.1367" width="2.35447" height="2.35447" fill="#097054"/>
<rect x="42.2822" y="28.3899" width="2.35447" height="2.35447" fill="#097054"/>
<rect x="42.2822" y="31.1367" width="2.35447" height="2.35447" fill="#097054"/>
<rect x="103.558" y="28.3899" width="2.35447" height="2.35447" fill="#097054"/>
<rect x="103.558" y="31.1367" width="2.35447" height="2.35447" fill="#097054"/>
<rect x="106.304" y="28.3899" width="2.35447" height="2.35447" fill="#097054"/>
<rect x="106.304" y="31.1367" width="2.35447" height="2.35447" fill="#097054"/>
<rect x="16.8345" y="29.6652" width="1.76585" height="1.76585" fill="#097054"/>
<rect x="16.8345" y="31.7253" width="1.76585" height="1.76585" fill="#097054"/>
<rect x="18.8945" y="29.6652" width="1.76585" height="1.76585" fill="#097054"/>
<rect x="18.8945" y="31.7253" width="1.76585" height="1.76585" fill="#097054"/>
<rect x="127.534" y="29.6652" width="1.76585" height="1.76585" fill="#097054"/>
<rect x="127.534" y="31.7253" width="1.76585" height="1.76585" fill="#097054"/>
<rect x="129.594" y="29.6652" width="1.76585" height="1.76585" fill="#097054"/>
<rect x="129.594" y="31.7253" width="1.76585" height="1.76585" fill="#097054"/>
<path d="M28.9501 30.9405L21.043 17.8046H37.1122L28.9501 30.9405Z" fill="#ECA143" stroke="#ECA143" stroke-width="0.255068"/>
<path d="M119.499 30.9405L111.592 17.8046H127.661L119.499 30.9405Z" fill="#ECA143" stroke="#ECA143" stroke-width="0.255068"/>
<path d="M55.2221 30.8129L44.5093 9.64233L58.6655 12.3205L72.9493 1.2251L55.2221 30.8129Z" fill="#ECA143" stroke="#ECA143" stroke-width="0.255068"/>
<path d="M93.6099 30.8129L104.323 9.64233L90.1665 12.3205L75.8827 1.2251L93.6099 30.8129Z" fill="#ECA143" stroke="#ECA143" stroke-width="0.255068"/>
<path d="M55.2222 30.8129L72.9494 1.2251L58.6656 12.193L55.2222 30.8129Z" fill="#D8933D" stroke="#D8933D" stroke-width="0.255068"/>
<path d="M93.6095 30.8129L75.8823 1.2251L90.1661 12.3205L93.6095 30.8129Z" fill="#D8933D" stroke="#D8933D" stroke-width="0.255068"/>
</svg>
